<svg xmlns="http://www.w3.org/2000/svg" viewBox="0 0 36 36"><defs><style>.a{fill:#364566;}</style></defs><path class="a" d="M1,14.15v-1H3.73v1H2.89v3.34H1.77V14.15Z"/><path class="a" d="M3.93,14.32a2,2,0,0,1,.26-.69,1,1,0,0,1,.48-.39,1.87,1.87,0,0,1,.72-.12,1.94,1.94,0,0,1,.72.12,1,1,0,0,1,.47.39,1.81,1.81,0,0,1,.26.69,5.86,5.86,0,0,1,.08,1,6.07,6.07,0,0,1-.08,1,1.81,1.81,0,0,1-.26.69,1.09,1.09,0,0,1-.47.38,2.18,2.18,0,0,1-.72.11,2.1,2.1,0,0,1-.72-.11,1.06,1.06,0,0,1-.48-.38,2,2,0,0,1-.26-.69,6.17,6.17,0,0,1-.07-1A6,6,0,0,1,3.93,14.32ZM5,16.06a3.58,3.58,0,0,0,.05.45.49.49,0,0,0,.12.24.3.3,0,0,0,.2.06.32.32,0,0,0,.2-.06.41.41,0,0,0,.11-.24,2.35,2.35,0,0,0,0-.45c0-.19,0-.43,0-.72s0-.52,0-.71a2.57,2.57,0,0,0,0-.46.38.38,0,0,0-.11-.23.32.32,0,0,0-.2-.07.3.3,0,0,0-.2.07.45.45,0,0,0-.12.23,4,4,0,0,0-.05.46c0,.19,0,.43,0,.71S5,15.87,5,16.06Z"/><path class="a" d="M9.06,13.2a1.47,1.47,0,0,1,.55.09.83.83,0,0,1,.36.23.85.85,0,0,1,.21.37,1.63,1.63,0,0,1,.06.45,1.32,1.32,0,0,1-.17.7.81.81,0,0,1-.56.32h0a.67.67,0,0,1,.55.29,1.28,1.28,0,0,1,.15.67v.54a.91.91,0,0,0,0,.17c0,.06,0,.11,0,.15a.41.41,0,0,0,0,.1l.05.07a.29.29,0,0,0,.08.07v.06H9.2a.66.66,0,0,1-.06-.2l0-.23a1.7,1.7,0,0,1,0-.22c0-.07,0-.13,0-.17v-.29a2.63,2.63,0,0,0,0-.3A.69.69,0,0,0,9,15.89a.19.19,0,0,0-.11-.09.43.43,0,0,0-.17,0h-.3v1.72H7.32V13.2ZM8.66,15A.41.41,0,0,0,9,14.87a.53.53,0,0,0,.11-.37A.51.51,0,0,0,9,14.12.46.46,0,0,0,8.65,14H8.43v1Z"/><path class="a" d="M12.87,13.2l1,4.29H12.72l-.11-.75h-.89l-.11.75H10.44l1-4.29Zm-.71.88-.31,1.82h.63l-.31-1.82Z"/><path class="a" d="M15.21,13.2v1.57h.69V13.2H17v4.29H15.9V15.72h-.69v1.77H14.1V13.2Z"/><path class="a" d="M20.73,13.2a1.56,1.56,0,0,1,.56.1,1.1,1.1,0,0,1,.61.7,1.72,1.72,0,0,1,.07.52,1.29,1.29,0,0,1-.36,1,1.46,1.46,0,0,1-1,.33h-.39v1.64H19.06V13.2Zm-.34,1.85a.39.39,0,0,0,.32-.13.59.59,0,0,0,.11-.39c0-.35-.15-.52-.43-.52h-.21v1Z"/><path class="a" d="M24.07,13.2a1.45,1.45,0,0,1,.54.09.87.87,0,0,1,.37.23,1,1,0,0,1,.2.37,1.33,1.33,0,0,1,.07.45,1.23,1.23,0,0,1-.18.7.77.77,0,0,1-.56.32h0a.69.69,0,0,1,.56.29,1.28,1.28,0,0,1,.15.67V17c0,.06,0,.11,0,.15a.41.41,0,0,0,0,.1l.05.07a.19.19,0,0,0,.08.07v.06H24.21a.66.66,0,0,1-.06-.2.91.91,0,0,1,0-.23c0-.08,0-.15,0-.22v-.46a2.36,2.36,0,0,0,0-.3.47.47,0,0,0-.06-.19.23.23,0,0,0-.11-.09.48.48,0,0,0-.18,0h-.29v1.72H22.33V13.2ZM23.66,15a.43.43,0,0,0,.36-.14.58.58,0,0,0,.11-.37.56.56,0,0,0-.11-.38.46.46,0,0,0-.36-.11h-.22v1Z"/><path class="a" d="M28.31,13.2v.91H26.88v.74h1.34v.87H26.88v.85h1.48v.92H25.77V13.2Z"/><path class="a" d="M30.44,14.34a.67.67,0,0,0-.08-.33.26.26,0,0,0-.24-.14.32.32,0,0,0-.27.12.5.5,0,0,0-.08.26.42.42,0,0,0,.14.33,1.05,1.05,0,0,0,.34.22l.43.18a1.88,1.88,0,0,1,.44.24,1.21,1.21,0,0,1,.34.4,1.28,1.28,0,0,1,.13.63,1.2,1.2,0,0,1-.38,1,1.79,1.79,0,0,1-1.13.31,2.83,2.83,0,0,1-.62-.06A1,1,0,0,1,29,17.3a1,1,0,0,1-.28-.37,1.55,1.55,0,0,1-.09-.57v-.15h1.08v.11a.54.54,0,0,0,.1.38.36.36,0,0,0,.53,0,.46.46,0,0,0,.09-.29.42.42,0,0,0-.13-.33.94.94,0,0,0-.32-.21l-.42-.18a2.22,2.22,0,0,1-.43-.23,1.32,1.32,0,0,1-.32-.38,1.23,1.23,0,0,1-.13-.61,1.35,1.35,0,0,1,.35-1,1.43,1.43,0,0,1,1.05-.34,1.48,1.48,0,0,1,1.06.31,1.35,1.35,0,0,1,.33,1h-1Z"/><path class="a" d="M33.66,14.34a.67.67,0,0,0-.08-.33.26.26,0,0,0-.24-.14.29.29,0,0,0-.26.12.43.43,0,0,0-.09.26.42.42,0,0,0,.14.33,1.05,1.05,0,0,0,.34.22l.43.18a1.7,1.7,0,0,1,.44.24,1.21,1.21,0,0,1,.34.4,1.28,1.28,0,0,1,.14.63,1.17,1.17,0,0,1-.39,1,1.77,1.77,0,0,1-1.13.31,2.9,2.9,0,0,1-.62-.06,1.14,1.14,0,0,1-.45-.19,1,1,0,0,1-.28-.37,1.55,1.55,0,0,1-.09-.57v-.15h1.08v.11a.54.54,0,0,0,.1.38.33.33,0,0,0,.26.11.32.32,0,0,0,.27-.12.46.46,0,0,0,.1-.29.45.45,0,0,0-.13-.33,1.1,1.1,0,0,0-.33-.21l-.42-.18a2.13,2.13,0,0,1-.42-.23,1.43,1.43,0,0,1-.11-2,1.44,1.44,0,0,1,1.06-.34,1.51,1.51,0,0,1,1.06.31,1.39,1.39,0,0,1,.32,1h-1Z"/></svg>